<svg width="32" height="31" viewBox="0 0 32 31" fill="none" xmlns="http://www.w3.org/2000/svg">
<path d="M15.1432 1.42372C15.5319 0.777903 16.4681 0.777902 16.8568 1.42372L21.3773 8.93517C21.5169 9.16718 21.7446 9.33265 22.0084 9.39375L30.5492 11.3718C31.2835 11.5419 31.5728 12.4323 31.0787 13.0015L25.3318 19.6219C25.1543 19.8264 25.0673 20.0941 25.0907 20.3639L25.8487 29.0979C25.9139 29.8488 25.1564 30.3991 24.4623 30.1051L16.3901 26.6853C16.1408 26.5796 15.8592 26.5796 15.6099 26.6853L7.53767 30.1051C6.84363 30.3991 6.08615 29.8488 6.15132 29.0979L6.90931 20.3639C6.93272 20.0941 6.84573 19.8264 6.66822 19.6219L0.92131 13.0015C0.427202 12.4323 0.716533 11.5419 1.45085 11.3718L9.99156 9.39375C10.2554 9.33265 10.4831 9.16718 10.6227 8.93517L15.1432 1.42372Z" fill="#6D78C0" fill-opacity="0.5"/>
</svg>
